<?xml version="1.0" encoding="utf-8" standalone="no"?>
<!DOCTYPE svg PUBLIC "-//W3C//DTD SVG 1.1//EN"
  "http://www.w3.org/Graphics/SVG/1.1/DTD/svg11.dtd">
<svg xmlns:xlink="http://www.w3.org/1999/xlink" width="864pt" height="288pt" viewBox="0 0 864 288" xmlns="http://www.w3.org/2000/svg" version="1.1">
 <metadata>
  <rdf:RDF xmlns:dc="http://purl.org/dc/elements/1.1/" xmlns:cc="http://creativecommons.org/ns#" xmlns:rdf="http://www.w3.org/1999/02/22-rdf-syntax-ns#">
   <cc:Work>
    <dc:type rdf:resource="http://purl.org/dc/dcmitype/StillImage"/>
    <dc:date>2025-07-28T01:36:15.997112</dc:date>
    <dc:format>image/svg+xml</dc:format>
    <dc:creator>
     <cc:Agent>
      <dc:title>Matplotlib v3.10.3, https://matplotlib.org/</dc:title>
     </cc:Agent>
    </dc:creator>
   </cc:Work>
  </rdf:RDF>
 </metadata>
 <defs>
  <style type="text/css">*{stroke-linejoin: round; stroke-linecap: butt}</style>
 </defs>
 <g id="figure_1">
  <g id="patch_1">
   <path d="M 0 288 
L 864 288 
L 864 0 
L 0 0 
z
" style="fill: #ffffff"/>
  </g>
  <g id="axes_1">
   <g id="patch_2">
    <path d="M 46.46 182.298052 
L 853.2 182.298052 
L 853.2 26.88 
L 46.46 26.88 
z
" style="fill: #ffffff"/>
   </g>
   <g id="patch_3">
    <path d="M 61.974231 182.298052 
L 93.002692 182.298052 
L 93.002692 34.28086 
L 61.974231 34.28086 
z
" clip-path="url(#pd178c7417e)" style="fill: #779ecb"/>
   </g>
   <g id="patch_4">
    <path d="M 124.031154 182.298052 
L 155.059615 182.298052 
L 155.059615 89.740935 
L 124.031154 89.740935 
z
" clip-path="url(#pd178c7417e)" style="fill: #779ecb"/>
   </g>
   <g id="patch_5">
    <path d="M 186.088077 182.298052 
L 217.116538 182.298052 
L 217.116538 123.499243 
L 186.088077 123.499243 
z
" clip-path="url(#pd178c7417e)" style="fill: #779ecb"/>
   </g>
   <g id="patch_6">
    <path d="M 248.145 182.298052 
L 279.173462 182.298052 
L 279.173462 129.805739 
L 248.145 129.805739 
z
" clip-path="url(#pd178c7417e)" style="fill: #779ecb"/>
   </g>
   <g id="patch_7">
    <path d="M 310.201923 182.298052 
L 341.230385 182.298052 
L 341.230385 151.692993 
L 310.201923 151.692993 
z
" clip-path="url(#pd178c7417e)" style="fill: #779ecb"/>
   </g>
   <g id="patch_8">
    <path d="M 372.258846 182.298052 
L 403.287308 182.298052 
L 403.287308 154.289786 
L 372.258846 154.289786 
z
" clip-path="url(#pd178c7417e)" style="fill: #779ecb"/>
   </g>
   <g id="patch_9">
    <path d="M 434.315769 182.298052 
L 465.344231 182.298052 
L 465.344231 156.701094 
L 434.315769 156.701094 
z
" clip-path="url(#pd178c7417e)" style="fill: #779ecb"/>
   </g>
   <g id="patch_10">
    <path d="M 496.372692 182.298052 
L 527.401154 182.298052 
L 527.401154 169.685058 
L 496.372692 169.685058 
z
" clip-path="url(#pd178c7417e)" style="fill: #779ecb"/>
   </g>
   <g id="patch_11">
    <path d="M 558.429615 182.298052 
L 589.458077 182.298052 
L 589.458077 171.16894 
L 558.429615 171.16894 
z
" clip-path="url(#pd178c7417e)" style="fill: #779ecb"/>
   </g>
   <g id="patch_12">
    <path d="M 620.486538 182.298052 
L 651.515 182.298052 
L 651.515 174.322188 
L 620.486538 174.322188 
z
" clip-path="url(#pd178c7417e)" style="fill: #779ecb"/>
   </g>
   <g id="patch_13">
    <path d="M 682.543462 182.298052 
L 713.571923 182.298052 
L 713.571923 175.620585 
L 682.543462 175.620585 
z
" clip-path="url(#pd178c7417e)" style="fill: #779ecb"/>
   </g>
   <g id="patch_14">
    <path d="M 744.600385 182.298052 
L 775.628846 182.298052 
L 775.628846 181.556111 
L 744.600385 181.556111 
z
" clip-path="url(#pd178c7417e)" style="fill: #779ecb"/>
   </g>
   <g id="patch_15">
    <path d="M 806.657308 182.298052 
L 837.685769 182.298052 
L 837.685769 181.927082 
L 806.657308 181.927082 
z
" clip-path="url(#pd178c7417e)" style="fill: #779ecb"/>
   </g>
   <g id="matplotlib.axis_1">
    <g id="xtick_1">
     <g id="line2d_1">
      <defs>
       <path id="mc1a8998eda" d="M 0 0 
L 0 3.5 
" style="stroke: #000000; stroke-width: 0.8"/>
      </defs>
      <g>
       <use xlink:href="#mc1a8998eda" x="77.488462" y="182.298052" style="stroke: #000000; stroke-width: 0.8"/>
      </g>
     </g>
     <g id="text_1">
      <!-- Defense Evasion -->
      <g transform="translate(25.227967 244.710475) rotate(-45) scale(0.08 -0.08)">
       <defs>
        <path id="DejaVuSansMono-44" d="M 1363 519 
Q 2159 519 2475 911 
Q 2791 1303 2791 2328 
Q 2791 3363 2477 3755 
Q 2163 4147 1363 4147 
L 1063 4147 
L 1063 519 
L 1363 519 
z
M 1375 4666 
Q 2444 4666 2950 4097 
Q 3456 3528 3456 2328 
Q 3456 1134 2950 567 
Q 2444 0 1375 0 
L 428 0 
L 428 4666 
L 1375 4666 
z
" transform="scale(0.015625)"/>
        <path id="DejaVuSansMono-65" d="M 3475 1894 
L 3475 1613 
L 984 1613 
L 984 1594 
Q 984 1022 1282 709 
Q 1581 397 2125 397 
Q 2400 397 2700 484 
Q 3000 572 3341 750 
L 3341 178 
Q 3013 44 2708 -23 
Q 2403 -91 2119 -91 
Q 1303 -91 843 398 
Q 384 888 384 1747 
Q 384 2584 834 3084 
Q 1284 3584 2034 3584 
Q 2703 3584 3089 3131 
Q 3475 2678 3475 1894 
z
M 2900 2063 
Q 2888 2569 2661 2833 
Q 2434 3097 2009 3097 
Q 1594 3097 1325 2822 
Q 1056 2547 1006 2059 
L 2900 2063 
z
" transform="scale(0.015625)"/>
        <path id="DejaVuSansMono-66" d="M 3322 4863 
L 3322 4384 
L 2669 4384 
Q 2359 4384 2239 4257 
Q 2119 4131 2119 3809 
L 2119 3500 
L 3322 3500 
L 3322 3053 
L 2119 3053 
L 2119 0 
L 1544 0 
L 1544 3053 
L 609 3053 
L 609 3500 
L 1544 3500 
L 1544 3744 
Q 1544 4319 1808 4591 
Q 2072 4863 2631 4863 
L 3322 4863 
z
" transform="scale(0.015625)"/>
        <path id="DejaVuSansMono-6e" d="M 3284 2169 
L 3284 0 
L 2706 0 
L 2706 2169 
Q 2706 2641 2540 2862 
Q 2375 3084 2022 3084 
Q 1619 3084 1401 2798 
Q 1184 2513 1184 1978 
L 1184 0 
L 609 0 
L 609 3500 
L 1184 3500 
L 1184 2975 
Q 1338 3275 1600 3429 
Q 1863 3584 2222 3584 
Q 2756 3584 3020 3232 
Q 3284 2881 3284 2169 
z
" transform="scale(0.015625)"/>
        <path id="DejaVuSansMono-73" d="M 3041 3378 
L 3041 2816 
Q 2794 2959 2544 3031 
Q 2294 3103 2034 3103 
Q 1644 3103 1451 2976 
Q 1259 2850 1259 2591 
Q 1259 2356 1403 2240 
Q 1547 2125 2119 2016 
L 2350 1972 
Q 2778 1891 2998 1647 
Q 3219 1403 3219 1013 
Q 3219 494 2850 201 
Q 2481 -91 1825 -91 
Q 1566 -91 1281 -36 
Q 997 19 666 128 
L 666 722 
Q 988 556 1281 473 
Q 1575 391 1838 391 
Q 2219 391 2428 545 
Q 2638 700 2638 978 
Q 2638 1378 1872 1531 
L 1847 1538 
L 1631 1581 
Q 1134 1678 906 1908 
Q 678 2138 678 2534 
Q 678 3038 1018 3311 
Q 1359 3584 1991 3584 
Q 2272 3584 2531 3532 
Q 2791 3481 3041 3378 
z
" transform="scale(0.015625)"/>
        <path id="DejaVuSansMono-20" transform="scale(0.015625)"/>
        <path id="DejaVuSansMono-45" d="M 616 4666 
L 3384 4666 
L 3384 4134 
L 1247 4134 
L 1247 2753 
L 3291 2753 
L 3291 2222 
L 1247 2222 
L 1247 531 
L 3444 531 
L 3444 0 
L 616 0 
L 616 4666 
z
" transform="scale(0.015625)"/>
        <path id="DejaVuSansMono-76" d="M 313 3500 
L 909 3500 
L 1925 563 
L 2944 3500 
L 3541 3500 
L 2297 0 
L 1556 0 
L 313 3500 
z
" transform="scale(0.015625)"/>
        <path id="DejaVuSansMono-61" d="M 2194 1759 
L 2003 1759 
Q 1500 1759 1245 1582 
Q 991 1406 991 1056 
Q 991 741 1181 566 
Q 1372 391 1709 391 
Q 2184 391 2456 720 
Q 2728 1050 2731 1631 
L 2731 1759 
L 2194 1759 
z
M 3309 1997 
L 3309 0 
L 2731 0 
L 2731 519 
Q 2547 206 2267 57 
Q 1988 -91 1588 -91 
Q 1053 -91 734 211 
Q 416 513 416 1019 
Q 416 1603 808 1906 
Q 1200 2209 1959 2209 
L 2731 2209 
L 2731 2300 
Q 2728 2719 2518 2908 
Q 2309 3097 1850 3097 
Q 1556 3097 1256 3012 
Q 956 2928 672 2766 
L 672 3341 
Q 991 3463 1283 3523 
Q 1575 3584 1850 3584 
Q 2284 3584 2592 3456 
Q 2900 3328 3091 3072 
Q 3209 2916 3259 2686 
Q 3309 2456 3309 1997 
z
" transform="scale(0.015625)"/>
        <path id="DejaVuSansMono-69" d="M 800 3500 
L 2272 3500 
L 2272 447 
L 3413 447 
L 3413 0 
L 556 0 
L 556 447 
L 1697 447 
L 1697 3053 
L 800 3053 
L 800 3500 
z
M 1697 4863 
L 2272 4863 
L 2272 4134 
L 1697 4134 
L 1697 4863 
z
" transform="scale(0.015625)"/>
        <path id="DejaVuSansMono-6f" d="M 1925 3097 
Q 1488 3097 1263 2756 
Q 1038 2416 1038 1747 
Q 1038 1081 1263 739 
Q 1488 397 1925 397 
Q 2366 397 2591 739 
Q 2816 1081 2816 1747 
Q 2816 2416 2591 2756 
Q 2366 3097 1925 3097 
z
M 1925 3584 
Q 2653 3584 3039 3112 
Q 3425 2641 3425 1747 
Q 3425 850 3040 379 
Q 2656 -91 1925 -91 
Q 1197 -91 812 379 
Q 428 850 428 1747 
Q 428 2641 812 3112 
Q 1197 3584 1925 3584 
z
" transform="scale(0.015625)"/>
       </defs>
       <use xlink:href="#DejaVuSansMono-44"/>
       <use xlink:href="#DejaVuSansMono-65" transform="translate(60.205078 0)"/>
       <use xlink:href="#DejaVuSansMono-66" transform="translate(120.410156 0)"/>
       <use xlink:href="#DejaVuSansMono-65" transform="translate(180.615234 0)"/>
       <use xlink:href="#DejaVuSansMono-6e" transform="translate(240.820312 0)"/>
       <use xlink:href="#DejaVuSansMono-73" transform="translate(301.025391 0)"/>
       <use xlink:href="#DejaVuSansMono-65" transform="translate(361.230469 0)"/>
       <use xlink:href="#DejaVuSansMono-20" transform="translate(421.435547 0)"/>
       <use xlink:href="#DejaVuSansMono-45" transform="translate(481.640625 0)"/>
       <use xlink:href="#DejaVuSansMono-76" transform="translate(541.845703 0)"/>
       <use xlink:href="#DejaVuSansMono-61" transform="translate(602.050781 0)"/>
       <use xlink:href="#DejaVuSansMono-73" transform="translate(662.255859 0)"/>
       <use xlink:href="#DejaVuSansMono-69" transform="translate(722.460938 0)"/>
       <use xlink:href="#DejaVuSansMono-6f" transform="translate(782.666016 0)"/>
       <use xlink:href="#DejaVuSansMono-6e" transform="translate(842.871094 0)"/>
      </g>
     </g>
    </g>
    <g id="xtick_2">
     <g id="line2d_2">
      <g>
       <use xlink:href="#mc1a8998eda" x="139.545385" y="182.298052" style="stroke: #000000; stroke-width: 0.8"/>
      </g>
     </g>
     <g id="text_2">
      <!-- Discovery -->
      <g transform="translate(107.718508 224.276857) rotate(-45) scale(0.08 -0.08)">
       <defs>
        <path id="DejaVuSansMono-63" d="M 3316 178 
Q 3084 44 2839 -23 
Q 2594 -91 2338 -91 
Q 1525 -91 1067 396 
Q 609 884 609 1747 
Q 609 2609 1067 3096 
Q 1525 3584 2338 3584 
Q 2591 3584 2831 3518 
Q 3072 3453 3316 3316 
L 3316 2713 
Q 3088 2916 2858 3006 
Q 2628 3097 2338 3097 
Q 1797 3097 1506 2747 
Q 1216 2397 1216 1747 
Q 1216 1100 1508 748 
Q 1800 397 2338 397 
Q 2638 397 2875 489 
Q 3113 581 3316 775 
L 3316 178 
z
" transform="scale(0.015625)"/>
        <path id="DejaVuSansMono-72" d="M 3609 2778 
Q 3425 2922 3234 2987 
Q 3044 3053 2816 3053 
Q 2278 3053 1993 2715 
Q 1709 2378 1709 1741 
L 1709 0 
L 1131 0 
L 1131 3500 
L 1709 3500 
L 1709 2816 
Q 1853 3188 2151 3386 
Q 2450 3584 2859 3584 
Q 3072 3584 3256 3531 
Q 3441 3478 3609 3366 
L 3609 2778 
z
" transform="scale(0.015625)"/>
        <path id="DejaVuSansMono-79" d="M 2681 1125 
Q 2538 759 2316 163 
Q 2006 -663 1900 -844 
Q 1756 -1088 1540 -1209 
Q 1325 -1331 1038 -1331 
L 575 -1331 
L 575 -850 
L 916 -850 
Q 1169 -850 1312 -703 
Q 1456 -556 1678 56 
L 325 3500 
L 934 3500 
L 1972 763 
L 2994 3500 
L 3603 3500 
L 2681 1125 
z
" transform="scale(0.015625)"/>
       </defs>
       <use xlink:href="#DejaVuSansMono-44"/>
       <use xlink:href="#DejaVuSansMono-69" transform="translate(60.205078 0)"/>
       <use xlink:href="#DejaVuSansMono-73" transform="translate(120.410156 0)"/>
       <use xlink:href="#DejaVuSansMono-63" transform="translate(180.615234 0)"/>
       <use xlink:href="#DejaVuSansMono-6f" transform="translate(240.820312 0)"/>
       <use xlink:href="#DejaVuSansMono-76" transform="translate(301.025391 0)"/>
       <use xlink:href="#DejaVuSansMono-65" transform="translate(361.230469 0)"/>
       <use xlink:href="#DejaVuSansMono-72" transform="translate(421.435547 0)"/>
       <use xlink:href="#DejaVuSansMono-79" transform="translate(481.640625 0)"/>
      </g>
     </g>
    </g>
    <g id="xtick_3">
     <g id="line2d_3">
      <g>
       <use xlink:href="#mc1a8998eda" x="201.602308" y="182.298052" style="stroke: #000000; stroke-width: 0.8"/>
      </g>
     </g>
     <g id="text_3">
      <!-- Privilege Escalation -->
      <g transform="translate(132.274907 261.73849) rotate(-45) scale(0.08 -0.08)">
       <defs>
        <path id="DejaVuSansMono-50" d="M 1247 4147 
L 1247 2394 
L 1978 2394 
Q 2416 2394 2661 2625 
Q 2906 2856 2906 3272 
Q 2906 3688 2662 3917 
Q 2419 4147 1978 4147 
L 1247 4147 
z
M 616 4666 
L 1978 4666 
Q 2759 4666 3162 4311 
Q 3566 3956 3566 3272 
Q 3566 2581 3164 2228 
Q 2763 1875 1978 1875 
L 1247 1875 
L 1247 0 
L 616 0 
L 616 4666 
z
" transform="scale(0.015625)"/>
        <path id="DejaVuSansMono-6c" d="M 1997 1269 
Q 1997 881 2139 684 
Q 2281 488 2559 488 
L 3231 488 
L 3231 0 
L 2503 0 
Q 1988 0 1705 331 
Q 1422 663 1422 1269 
L 1422 4447 
L 500 4447 
L 500 4897 
L 1997 4897 
L 1997 1269 
z
" transform="scale(0.015625)"/>
        <path id="DejaVuSansMono-67" d="M 2681 1778 
Q 2681 2425 2470 2761 
Q 2259 3097 1856 3097 
Q 1434 3097 1212 2761 
Q 991 2425 991 1778 
Q 991 1131 1214 792 
Q 1438 453 1863 453 
Q 2259 453 2470 793 
Q 2681 1134 2681 1778 
z
M 3256 225 
Q 3256 -563 2884 -969 
Q 2513 -1375 1791 -1375 
Q 1553 -1375 1293 -1331 
Q 1034 -1288 775 -1203 
L 775 -634 
Q 1081 -778 1331 -847 
Q 1581 -916 1791 -916 
Q 2256 -916 2468 -662 
Q 2681 -409 2681 141 
L 2681 166 
L 2681 556 
Q 2544 263 2306 119 
Q 2069 -25 1728 -25 
Q 1116 -25 750 465 
Q 384 956 384 1778 
Q 384 2603 750 3093 
Q 1116 3584 1728 3584 
Q 2066 3584 2300 3450 
Q 2534 3316 2681 3034 
L 2681 3488 
L 3256 3488 
L 3256 225 
z
" transform="scale(0.015625)"/>
        <path id="DejaVuSansMono-74" d="M 1919 4494 
L 1919 3500 
L 3225 3500 
L 3225 3053 
L 1919 3053 
L 1919 1153 
Q 1919 766 2066 612 
Q 2213 459 2578 459 
L 3225 459 
L 3225 0 
L 2522 0 
Q 1875 0 1609 259 
Q 1344 519 1344 1153 
L 1344 3053 
L 409 3053 
L 409 3500 
L 1344 3500 
L 1344 4494 
L 1919 4494 
z
" transform="scale(0.015625)"/>
       </defs>
       <use xlink:href="#DejaVuSansMono-50"/>
       <use xlink:href="#DejaVuSansMono-72" transform="translate(60.205078 0)"/>
       <use xlink:href="#DejaVuSansMono-69" transform="translate(120.410156 0)"/>
       <use xlink:href="#DejaVuSansMono-76" transform="translate(180.615234 0)"/>
       <use xlink:href="#DejaVuSansMono-69" transform="translate(240.820312 0)"/>
       <use xlink:href="#DejaVuSansMono-6c" transform="translate(301.025391 0)"/>
       <use xlink:href="#DejaVuSansMono-65" transform="translate(361.230469 0)"/>
       <use xlink:href="#DejaVuSansMono-67" transform="translate(421.435547 0)"/>
       <use xlink:href="#DejaVuSansMono-65" transform="translate(481.640625 0)"/>
       <use xlink:href="#DejaVuSansMono-20" transform="translate(541.845703 0)"/>
       <use xlink:href="#DejaVuSansMono-45" transform="translate(602.050781 0)"/>
       <use xlink:href="#DejaVuSansMono-73" transform="translate(662.255859 0)"/>
       <use xlink:href="#DejaVuSansMono-63" transform="translate(722.460938 0)"/>
       <use xlink:href="#DejaVuSansMono-61" transform="translate(782.666016 0)"/>
       <use xlink:href="#DejaVuSansMono-6c" transform="translate(842.871094 0)"/>
       <use xlink:href="#DejaVuSansMono-61" transform="translate(903.076172 0)"/>
       <use xlink:href="#DejaVuSansMono-74" transform="translate(963.28125 0)"/>
       <use xlink:href="#DejaVuSansMono-69" transform="translate(1023.486328 0)"/>
       <use xlink:href="#DejaVuSansMono-6f" transform="translate(1083.691406 0)"/>
       <use xlink:href="#DejaVuSansMono-6e" transform="translate(1143.896484 0)"/>
      </g>
     </g>
    </g>
    <g id="xtick_4">
     <g id="line2d_4">
      <g>
       <use xlink:href="#mc1a8998eda" x="263.659231" y="182.298052" style="stroke: #000000; stroke-width: 0.8"/>
      </g>
     </g>
     <g id="text_4">
      <!-- Credential Access -->
      <g transform="translate(204.58753 251.521681) rotate(-45) scale(0.08 -0.08)">
       <defs>
        <path id="DejaVuSansMono-43" d="M 3353 166 
Q 3113 38 2859 -26 
Q 2606 -91 2322 -91 
Q 1425 -91 929 543 
Q 434 1178 434 2328 
Q 434 3472 932 4111 
Q 1431 4750 2322 4750 
Q 2606 4750 2859 4686 
Q 3113 4622 3353 4494 
L 3353 3847 
Q 3122 4038 2856 4138 
Q 2591 4238 2322 4238 
Q 1706 4238 1400 3763 
Q 1094 3288 1094 2328 
Q 1094 1372 1400 897 
Q 1706 422 2322 422 
Q 2597 422 2861 522 
Q 3125 622 3353 813 
L 3353 166 
z
" transform="scale(0.015625)"/>
        <path id="DejaVuSansMono-64" d="M 2681 3053 
L 2681 4863 
L 3256 4863 
L 3256 0 
L 2681 0 
L 2681 441 
Q 2538 181 2298 45 
Q 2059 -91 1747 -91 
Q 1113 -91 748 401 
Q 384 894 384 1759 
Q 384 2613 750 3098 
Q 1116 3584 1747 3584 
Q 2063 3584 2303 3448 
Q 2544 3313 2681 3053 
z
M 991 1747 
Q 991 1078 1203 737 
Q 1416 397 1831 397 
Q 2247 397 2464 740 
Q 2681 1084 2681 1747 
Q 2681 2413 2464 2755 
Q 2247 3097 1831 3097 
Q 1416 3097 1203 2756 
Q 991 2416 991 1747 
z
" transform="scale(0.015625)"/>
        <path id="DejaVuSansMono-41" d="M 1925 4109 
L 1259 1722 
L 2591 1722 
L 1925 4109 
z
M 1544 4666 
L 2309 4666 
L 3738 0 
L 3084 0 
L 2741 1216 
L 1106 1216 
L 769 0 
L 116 0 
L 1544 4666 
z
" transform="scale(0.015625)"/>
       </defs>
       <use xlink:href="#DejaVuSansMono-43"/>
       <use xlink:href="#DejaVuSansMono-72" transform="translate(60.205078 0)"/>
       <use xlink:href="#DejaVuSansMono-65" transform="translate(120.410156 0)"/>
       <use xlink:href="#DejaVuSansMono-64" transform="translate(180.615234 0)"/>
       <use xlink:href="#DejaVuSansMono-65" transform="translate(240.820312 0)"/>
       <use xlink:href="#DejaVuSansMono-6e" transform="translate(301.025391 0)"/>
       <use xlink:href="#DejaVuSansMono-74" transform="translate(361.230469 0)"/>
       <use xlink:href="#DejaVuSansMono-69" transform="translate(421.435547 0)"/>
       <use xlink:href="#DejaVuSansMono-61" transform="translate(481.640625 0)"/>
       <use xlink:href="#DejaVuSansMono-6c" transform="translate(541.845703 0)"/>
       <use xlink:href="#DejaVuSansMono-20" transform="translate(602.050781 0)"/>
       <use xlink:href="#DejaVuSansMono-41" transform="translate(662.255859 0)"/>
       <use xlink:href="#DejaVuSansMono-63" transform="translate(722.460938 0)"/>
       <use xlink:href="#DejaVuSansMono-63" transform="translate(782.666016 0)"/>
       <use xlink:href="#DejaVuSansMono-65" transform="translate(842.871094 0)"/>
       <use xlink:href="#DejaVuSansMono-73" transform="translate(903.076172 0)"/>
       <use xlink:href="#DejaVuSansMono-73" transform="translate(963.28125 0)"/>
      </g>
     </g>
    </g>
    <g id="xtick_5">
     <g id="line2d_5">
      <g>
       <use xlink:href="#mc1a8998eda" x="325.716154" y="182.298052" style="stroke: #000000; stroke-width: 0.8"/>
      </g>
     </g>
     <g id="text_5">
      <!-- Command and Control -->
      <g transform="translate(259.833247 258.332887) rotate(-45) scale(0.08 -0.08)">
       <defs>
        <path id="DejaVuSansMono-6d" d="M 2113 3144 
Q 2219 3369 2383 3476 
Q 2547 3584 2778 3584 
Q 3200 3584 3373 3257 
Q 3547 2931 3547 2028 
L 3547 0 
L 3022 0 
L 3022 2003 
Q 3022 2744 2939 2923 
Q 2856 3103 2638 3103 
Q 2388 3103 2295 2911 
Q 2203 2719 2203 2003 
L 2203 0 
L 1678 0 
L 1678 2003 
Q 1678 2753 1589 2928 
Q 1500 3103 1269 3103 
Q 1041 3103 952 2911 
Q 863 2719 863 2003 
L 863 0 
L 341 0 
L 341 3500 
L 863 3500 
L 863 3200 
Q 966 3388 1120 3486 
Q 1275 3584 1472 3584 
Q 1709 3584 1867 3475 
Q 2025 3366 2113 3144 
z
" transform="scale(0.015625)"/>
       </defs>
       <use xlink:href="#DejaVuSansMono-43"/>
       <use xlink:href="#DejaVuSansMono-6f" transform="translate(60.205078 0)"/>
       <use xlink:href="#DejaVuSansMono-6d" transform="translate(120.410156 0)"/>
       <use xlink:href="#DejaVuSansMono-6d" transform="translate(180.615234 0)"/>
       <use xlink:href="#DejaVuSansMono-61" transform="translate(240.820312 0)"/>
       <use xlink:href="#DejaVuSansMono-6e" transform="translate(301.025391 0)"/>
       <use xlink:href="#DejaVuSansMono-64" transform="translate(361.230469 0)"/>
       <use xlink:href="#DejaVuSansMono-20" transform="translate(421.435547 0)"/>
       <use xlink:href="#DejaVuSansMono-61" transform="translate(481.640625 0)"/>
       <use xlink:href="#DejaVuSansMono-6e" transform="translate(541.845703 0)"/>
       <use xlink:href="#DejaVuSansMono-64" transform="translate(602.050781 0)"/>
       <use xlink:href="#DejaVuSansMono-20" transform="translate(662.255859 0)"/>
       <use xlink:href="#DejaVuSansMono-43" transform="translate(722.460938 0)"/>
       <use xlink:href="#DejaVuSansMono-6f" transform="translate(782.666016 0)"/>
       <use xlink:href="#DejaVuSansMono-6e" transform="translate(842.871094 0)"/>
       <use xlink:href="#DejaVuSansMono-74" transform="translate(903.076172 0)"/>
       <use xlink:href="#DejaVuSansMono-72" transform="translate(963.28125 0)"/>
       <use xlink:href="#DejaVuSansMono-6f" transform="translate(1023.486328 0)"/>
       <use xlink:href="#DejaVuSansMono-6c" transform="translate(1083.691406 0)"/>
      </g>
     </g>
    </g>
    <g id="xtick_6">
     <g id="line2d_6">
      <g>
       <use xlink:href="#mc1a8998eda" x="387.773077" y="182.298052" style="stroke: #000000; stroke-width: 0.8"/>
      </g>
     </g>
     <g id="text_6">
      <!-- Persistence -->
      <g transform="translate(349.134995 231.088063) rotate(-45) scale(0.08 -0.08)">
       <use xlink:href="#DejaVuSansMono-50"/>
       <use xlink:href="#DejaVuSansMono-65" transform="translate(60.205078 0)"/>
       <use xlink:href="#DejaVuSansMono-72" transform="translate(120.410156 0)"/>
       <use xlink:href="#DejaVuSansMono-73" transform="translate(180.615234 0)"/>
       <use xlink:href="#DejaVuSansMono-69" transform="translate(240.820312 0)"/>
       <use xlink:href="#DejaVuSansMono-73" transform="translate(301.025391 0)"/>
       <use xlink:href="#DejaVuSansMono-74" transform="translate(361.230469 0)"/>
       <use xlink:href="#DejaVuSansMono-65" transform="translate(421.435547 0)"/>
       <use xlink:href="#DejaVuSansMono-6e" transform="translate(481.640625 0)"/>
       <use xlink:href="#DejaVuSansMono-63" transform="translate(541.845703 0)"/>
       <use xlink:href="#DejaVuSansMono-65" transform="translate(602.050781 0)"/>
      </g>
     </g>
    </g>
    <g id="xtick_7">
     <g id="line2d_7">
      <g>
       <use xlink:href="#mc1a8998eda" x="449.83" y="182.298052" style="stroke: #000000; stroke-width: 0.8"/>
      </g>
     </g>
     <g id="text_7">
      <!-- Execution -->
      <g transform="translate(418.003124 224.276857) rotate(-45) scale(0.08 -0.08)">
       <defs>
        <path id="DejaVuSansMono-78" d="M 3494 3500 
L 2241 1825 
L 3616 0 
L 2950 0 
L 1925 1403 
L 903 0 
L 238 0 
L 1613 1825 
L 359 3500 
L 997 3500 
L 1925 2234 
L 2847 3500 
L 3494 3500 
z
" transform="scale(0.015625)"/>
        <path id="DejaVuSansMono-75" d="M 609 1325 
L 609 3494 
L 1184 3494 
L 1184 1325 
Q 1184 853 1351 631 
Q 1519 409 1869 409 
Q 2275 409 2490 695 
Q 2706 981 2706 1516 
L 2706 3494 
L 3284 3494 
L 3284 0 
L 2706 0 
L 2706 525 
Q 2553 222 2289 65 
Q 2025 -91 1672 -91 
Q 1134 -91 871 261 
Q 609 613 609 1325 
z
" transform="scale(0.015625)"/>
       </defs>
       <use xlink:href="#DejaVuSansMono-45"/>
       <use xlink:href="#DejaVuSansMono-78" transform="translate(60.205078 0)"/>
       <use xlink:href="#DejaVuSansMono-65" transform="translate(120.410156 0)"/>
       <use xlink:href="#DejaVuSansMono-63" transform="translate(180.615234 0)"/>
       <use xlink:href="#DejaVuSansMono-75" transform="translate(240.820312 0)"/>
       <use xlink:href="#DejaVuSansMono-74" transform="translate(301.025391 0)"/>
       <use xlink:href="#DejaVuSansMono-69" transform="translate(361.230469 0)"/>
       <use xlink:href="#DejaVuSansMono-6f" transform="translate(421.435547 0)"/>
       <use xlink:href="#DejaVuSansMono-6e" transform="translate(481.640625 0)"/>
      </g>
     </g>
    </g>
    <g id="xtick_8">
     <g id="line2d_8">
      <g>
       <use xlink:href="#mc1a8998eda" x="511.886923" y="182.298052" style="stroke: #000000; stroke-width: 0.8"/>
      </g>
     </g>
     <g id="text_8">
      <!-- Impact -->
      <g transform="translate(490.276856 214.060048) rotate(-45) scale(0.08 -0.08)">
       <defs>
        <path id="DejaVuSansMono-49" d="M 628 4666 
L 3219 4666 
L 3219 4134 
L 2241 4134 
L 2241 531 
L 3219 531 
L 3219 0 
L 628 0 
L 628 531 
L 1606 531 
L 1606 4134 
L 628 4134 
L 628 4666 
z
" transform="scale(0.015625)"/>
        <path id="DejaVuSansMono-70" d="M 1172 441 
L 1172 -1331 
L 594 -1331 
L 594 3500 
L 1172 3500 
L 1172 3053 
Q 1316 3313 1555 3448 
Q 1794 3584 2106 3584 
Q 2741 3584 3102 3093 
Q 3463 2603 3463 1734 
Q 3463 881 3100 395 
Q 2738 -91 2106 -91 
Q 1788 -91 1548 45 
Q 1309 181 1172 441 
z
M 2859 1747 
Q 2859 2416 2648 2756 
Q 2438 3097 2022 3097 
Q 1603 3097 1387 2755 
Q 1172 2413 1172 1747 
Q 1172 1084 1387 740 
Q 1603 397 2022 397 
Q 2438 397 2648 737 
Q 2859 1078 2859 1747 
z
" transform="scale(0.015625)"/>
       </defs>
       <use xlink:href="#DejaVuSansMono-49"/>
       <use xlink:href="#DejaVuSansMono-6d" transform="translate(60.205078 0)"/>
       <use xlink:href="#DejaVuSansMono-70" transform="translate(120.410156 0)"/>
       <use xlink:href="#DejaVuSansMono-61" transform="translate(180.615234 0)"/>
       <use xlink:href="#DejaVuSansMono-63" transform="translate(240.820312 0)"/>
       <use xlink:href="#DejaVuSansMono-74" transform="translate(301.025391 0)"/>
      </g>
     </g>
    </g>
    <g id="xtick_9">
     <g id="line2d_9">
      <g>
       <use xlink:href="#mc1a8998eda" x="573.943846" y="182.298052" style="stroke: #000000; stroke-width: 0.8"/>
      </g>
     </g>
     <g id="text_9">
      <!-- Collection -->
      <g transform="translate(538.711367 227.68246) rotate(-45) scale(0.08 -0.08)">
       <use xlink:href="#DejaVuSansMono-43"/>
       <use xlink:href="#DejaVuSansMono-6f" transform="translate(60.205078 0)"/>
       <use xlink:href="#DejaVuSansMono-6c" transform="translate(120.410156 0)"/>
       <use xlink:href="#DejaVuSansMono-6c" transform="translate(180.615234 0)"/>
       <use xlink:href="#DejaVuSansMono-65" transform="translate(240.820312 0)"/>
       <use xlink:href="#DejaVuSansMono-63" transform="translate(301.025391 0)"/>
       <use xlink:href="#DejaVuSansMono-74" transform="translate(361.230469 0)"/>
       <use xlink:href="#DejaVuSansMono-69" transform="translate(421.435547 0)"/>
       <use xlink:href="#DejaVuSansMono-6f" transform="translate(481.640625 0)"/>
       <use xlink:href="#DejaVuSansMono-6e" transform="translate(541.845703 0)"/>
      </g>
     </g>
    </g>
    <g id="xtick_10">
     <g id="line2d_10">
      <g>
       <use xlink:href="#mc1a8998eda" x="636.000769" y="182.298052" style="stroke: #000000; stroke-width: 0.8"/>
      </g>
     </g>
     <g id="text_10">
      <!-- Exfiltration -->
      <g transform="translate(593.957084 234.493666) rotate(-45) scale(0.08 -0.08)">
       <use xlink:href="#DejaVuSansMono-45"/>
       <use xlink:href="#DejaVuSansMono-78" transform="translate(60.205078 0)"/>
       <use xlink:href="#DejaVuSansMono-66" transform="translate(120.410156 0)"/>
       <use xlink:href="#DejaVuSansMono-69" transform="translate(180.615234 0)"/>
       <use xlink:href="#DejaVuSansMono-6c" transform="translate(240.820312 0)"/>
       <use xlink:href="#DejaVuSansMono-74" transform="translate(301.025391 0)"/>
       <use xlink:href="#DejaVuSansMono-72" transform="translate(361.230469 0)"/>
       <use xlink:href="#DejaVuSansMono-61" transform="translate(421.435547 0)"/>
       <use xlink:href="#DejaVuSansMono-74" transform="translate(481.640625 0)"/>
       <use xlink:href="#DejaVuSansMono-69" transform="translate(541.845703 0)"/>
       <use xlink:href="#DejaVuSansMono-6f" transform="translate(602.050781 0)"/>
       <use xlink:href="#DejaVuSansMono-6e" transform="translate(662.255859 0)"/>
      </g>
     </g>
    </g>
    <g id="xtick_11">
     <g id="line2d_11">
      <g>
       <use xlink:href="#mc1a8998eda" x="698.057692" y="182.298052" style="stroke: #000000; stroke-width: 0.8"/>
      </g>
     </g>
     <g id="text_11">
      <!-- Lateral Movement -->
      <g transform="translate(642.391595 248.116078) rotate(-45) scale(0.08 -0.08)">
       <defs>
        <path id="DejaVuSansMono-4c" d="M 672 4666 
L 1306 4666 
L 1306 531 
L 3559 531 
L 3559 0 
L 672 0 
L 672 4666 
z
" transform="scale(0.015625)"/>
        <path id="DejaVuSansMono-4d" d="M 269 4666 
L 1113 4666 
L 1919 2291 
L 2731 4666 
L 3578 4666 
L 3578 0 
L 2994 0 
L 2994 4122 
L 2163 1663 
L 1684 1663 
L 850 4122 
L 850 0 
L 269 0 
L 269 4666 
z
" transform="scale(0.015625)"/>
       </defs>
       <use xlink:href="#DejaVuSansMono-4c"/>
       <use xlink:href="#DejaVuSansMono-61" transform="translate(60.205078 0)"/>
       <use xlink:href="#DejaVuSansMono-74" transform="translate(120.410156 0)"/>
       <use xlink:href="#DejaVuSansMono-65" transform="translate(180.615234 0)"/>
       <use xlink:href="#DejaVuSansMono-72" transform="translate(240.820312 0)"/>
       <use xlink:href="#DejaVuSansMono-61" transform="translate(301.025391 0)"/>
       <use xlink:href="#DejaVuSansMono-6c" transform="translate(361.230469 0)"/>
       <use xlink:href="#DejaVuSansMono-20" transform="translate(421.435547 0)"/>
       <use xlink:href="#DejaVuSansMono-4d" transform="translate(481.640625 0)"/>
       <use xlink:href="#DejaVuSansMono-6f" transform="translate(541.845703 0)"/>
       <use xlink:href="#DejaVuSansMono-76" transform="translate(602.050781 0)"/>
       <use xlink:href="#DejaVuSansMono-65" transform="translate(662.255859 0)"/>
       <use xlink:href="#DejaVuSansMono-6d" transform="translate(722.460938 0)"/>
       <use xlink:href="#DejaVuSansMono-65" transform="translate(782.666016 0)"/>
       <use xlink:href="#DejaVuSansMono-6e" transform="translate(842.871094 0)"/>
       <use xlink:href="#DejaVuSansMono-74" transform="translate(903.076172 0)"/>
      </g>
     </g>
    </g>
    <g id="xtick_12">
     <g id="line2d_12">
      <g>
       <use xlink:href="#mc1a8998eda" x="760.114615" y="182.298052" style="stroke: #000000; stroke-width: 0.8"/>
      </g>
     </g>
     <g id="text_12">
      <!-- Initial Access -->
      <g transform="translate(711.259724 241.304872) rotate(-45) scale(0.08 -0.08)">
       <use xlink:href="#DejaVuSansMono-49"/>
       <use xlink:href="#DejaVuSansMono-6e" transform="translate(60.205078 0)"/>
       <use xlink:href="#DejaVuSansMono-69" transform="translate(120.410156 0)"/>
       <use xlink:href="#DejaVuSansMono-74" transform="translate(180.615234 0)"/>
       <use xlink:href="#DejaVuSansMono-69" transform="translate(240.820312 0)"/>
       <use xlink:href="#DejaVuSansMono-61" transform="translate(301.025391 0)"/>
       <use xlink:href="#DejaVuSansMono-6c" transform="translate(361.230469 0)"/>
       <use xlink:href="#DejaVuSansMono-20" transform="translate(421.435547 0)"/>
       <use xlink:href="#DejaVuSansMono-41" transform="translate(481.640625 0)"/>
       <use xlink:href="#DejaVuSansMono-63" transform="translate(541.845703 0)"/>
       <use xlink:href="#DejaVuSansMono-63" transform="translate(602.050781 0)"/>
       <use xlink:href="#DejaVuSansMono-65" transform="translate(662.255859 0)"/>
       <use xlink:href="#DejaVuSansMono-73" transform="translate(722.460938 0)"/>
       <use xlink:href="#DejaVuSansMono-73" transform="translate(782.666016 0)"/>
      </g>
     </g>
    </g>
    <g id="xtick_13">
     <g id="line2d_13">
      <g>
       <use xlink:href="#mc1a8998eda" x="822.171538" y="182.298052" style="stroke: #000000; stroke-width: 0.8"/>
      </g>
     </g>
     <g id="text_13">
      <!-- Reconnaissance -->
      <g transform="translate(773.316647 241.304872) rotate(-45) scale(0.08 -0.08)">
       <defs>
        <path id="DejaVuSansMono-52" d="M 2375 2203 
Q 2619 2141 2791 1967 
Q 2963 1794 3219 1275 
L 3853 0 
L 3175 0 
L 2619 1178 
Q 2378 1681 2186 1826 
Q 1994 1972 1684 1972 
L 1081 1972 
L 1081 0 
L 447 0 
L 447 4666 
L 1747 4666 
Q 2516 4666 2925 4319 
Q 3334 3972 3334 3316 
Q 3334 2853 3082 2561 
Q 2831 2269 2375 2203 
z
M 1081 4147 
L 1081 2491 
L 1772 2491 
Q 2225 2491 2447 2694 
Q 2669 2897 2669 3316 
Q 2669 3719 2433 3933 
Q 2197 4147 1747 4147 
L 1081 4147 
z
" transform="scale(0.015625)"/>
       </defs>
       <use xlink:href="#DejaVuSansMono-52"/>
       <use xlink:href="#DejaVuSansMono-65" transform="translate(60.205078 0)"/>
       <use xlink:href="#DejaVuSansMono-63" transform="translate(120.410156 0)"/>
       <use xlink:href="#DejaVuSansMono-6f" transform="translate(180.615234 0)"/>
       <use xlink:href="#DejaVuSansMono-6e" transform="translate(240.820312 0)"/>
       <use xlink:href="#DejaVuSansMono-6e" transform="translate(301.025391 0)"/>
       <use xlink:href="#DejaVuSansMono-61" transform="translate(361.230469 0)"/>
       <use xlink:href="#DejaVuSansMono-69" transform="translate(421.435547 0)"/>
       <use xlink:href="#DejaVuSansMono-73" transform="translate(481.640625 0)"/>
       <use xlink:href="#DejaVuSansMono-73" transform="translate(541.845703 0)"/>
       <use xlink:href="#DejaVuSansMono-61" transform="translate(602.050781 0)"/>
       <use xlink:href="#DejaVuSansMono-6e" transform="translate(662.255859 0)"/>
       <use xlink:href="#DejaVuSansMono-63" transform="translate(722.460938 0)"/>
       <use xlink:href="#DejaVuSansMono-65" transform="translate(782.666016 0)"/>
      </g>
     </g>
    </g>
    <g id="text_14">
     <!-- tactic -->
     <g transform="translate(431.769063 274.605392) scale(0.1 -0.1)">
      <use xlink:href="#DejaVuSansMono-74"/>
      <use xlink:href="#DejaVuSansMono-61" transform="translate(60.205078 0)"/>
      <use xlink:href="#DejaVuSansMono-63" transform="translate(120.410156 0)"/>
      <use xlink:href="#DejaVuSansMono-74" transform="translate(180.615234 0)"/>
      <use xlink:href="#DejaVuSansMono-69" transform="translate(240.820312 0)"/>
      <use xlink:href="#DejaVuSansMono-63" transform="translate(301.025391 0)"/>
     </g>
    </g>
   </g>
   <g id="matplotlib.axis_2">
    <g id="ytick_1">
     <g id="line2d_14">
      <defs>
       <path id="m89b94b124f" d="M 0 0 
L -3.5 0 
" style="stroke: #000000; stroke-width: 0.8"/>
      </defs>
      <g>
       <use xlink:href="#m89b94b124f" x="46.46" y="182.298052" style="stroke: #000000; stroke-width: 0.8"/>
      </g>
     </g>
     <g id="text_15">
      <!-- 0 -->
      <g transform="translate(34.64375 185.358677) scale(0.08 -0.08)">
       <defs>
        <path id="DejaVuSansMono-30" d="M 1509 2344 
Q 1509 2516 1629 2641 
Q 1750 2766 1919 2766 
Q 2094 2766 2219 2641 
Q 2344 2516 2344 2344 
Q 2344 2169 2220 2047 
Q 2097 1925 1919 1925 
Q 1744 1925 1626 2044 
Q 1509 2163 1509 2344 
z
M 1925 4250 
Q 1484 4250 1267 3775 
Q 1050 3300 1050 2328 
Q 1050 1359 1267 884 
Q 1484 409 1925 409 
Q 2369 409 2586 884 
Q 2803 1359 2803 2328 
Q 2803 3300 2586 3775 
Q 2369 4250 1925 4250 
z
M 1925 4750 
Q 2672 4750 3055 4137 
Q 3438 3525 3438 2328 
Q 3438 1134 3055 521 
Q 2672 -91 1925 -91 
Q 1178 -91 797 521 
Q 416 1134 416 2328 
Q 416 3525 797 4137 
Q 1178 4750 1925 4750 
z
" transform="scale(0.015625)"/>
       </defs>
       <use xlink:href="#DejaVuSansMono-30"/>
      </g>
     </g>
    </g>
    <g id="ytick_2">
     <g id="line2d_15">
      <g>
       <use xlink:href="#m89b94b124f" x="46.46" y="145.201011" style="stroke: #000000; stroke-width: 0.8"/>
      </g>
     </g>
     <g id="text_16">
      <!-- 200 -->
      <g transform="translate(25.01125 148.261636) scale(0.08 -0.08)">
       <defs>
        <path id="DejaVuSansMono-32" d="M 1166 531 
L 3309 531 
L 3309 0 
L 475 0 
L 475 531 
Q 1059 1147 1496 1619 
Q 1934 2091 2100 2284 
Q 2413 2666 2522 2902 
Q 2631 3138 2631 3384 
Q 2631 3775 2401 3997 
Q 2172 4219 1772 4219 
Q 1488 4219 1175 4116 
Q 863 4013 513 3803 
L 513 4441 
Q 834 4594 1145 4672 
Q 1456 4750 1759 4750 
Q 2444 4750 2861 4386 
Q 3278 4022 3278 3431 
Q 3278 3131 3139 2831 
Q 3000 2531 2688 2169 
Q 2513 1966 2180 1606 
Q 1847 1247 1166 531 
z
" transform="scale(0.015625)"/>
       </defs>
       <use xlink:href="#DejaVuSansMono-32"/>
       <use xlink:href="#DejaVuSansMono-30" transform="translate(60.205078 0)"/>
       <use xlink:href="#DejaVuSansMono-30" transform="translate(120.410156 0)"/>
      </g>
     </g>
    </g>
    <g id="ytick_3">
     <g id="line2d_16">
      <g>
       <use xlink:href="#m89b94b124f" x="46.46" y="108.103971" style="stroke: #000000; stroke-width: 0.8"/>
      </g>
     </g>
     <g id="text_17">
      <!-- 400 -->
      <g transform="translate(25.01125 111.164596) scale(0.08 -0.08)">
       <defs>
        <path id="DejaVuSansMono-34" d="M 2297 4091 
L 825 1625 
L 2297 1625 
L 2297 4091 
z
M 2194 4666 
L 2925 4666 
L 2925 1625 
L 3547 1625 
L 3547 1113 
L 2925 1113 
L 2925 0 
L 2297 0 
L 2297 1113 
L 319 1113 
L 319 1709 
L 2194 4666 
z
" transform="scale(0.015625)"/>
       </defs>
       <use xlink:href="#DejaVuSansMono-34"/>
       <use xlink:href="#DejaVuSansMono-30" transform="translate(60.205078 0)"/>
       <use xlink:href="#DejaVuSansMono-30" transform="translate(120.410156 0)"/>
      </g>
     </g>
    </g>
    <g id="ytick_4">
     <g id="line2d_17">
      <g>
       <use xlink:href="#m89b94b124f" x="46.46" y="71.00693" style="stroke: #000000; stroke-width: 0.8"/>
      </g>
     </g>
     <g id="text_18">
      <!-- 600 -->
      <g transform="translate(25.01125 74.067555) scale(0.08 -0.08)">
       <defs>
        <path id="DejaVuSansMono-36" d="M 3097 4563 
L 3097 3981 
Q 2900 4097 2678 4158 
Q 2456 4219 2216 4219 
Q 1616 4219 1306 3767 
Q 997 3316 997 2438 
Q 1147 2750 1412 2917 
Q 1678 3084 2022 3084 
Q 2697 3084 3067 2670 
Q 3438 2256 3438 1497 
Q 3438 741 3056 325 
Q 2675 -91 1984 -91 
Q 1172 -91 794 492 
Q 416 1075 416 2328 
Q 416 3509 870 4129 
Q 1325 4750 2188 4750 
Q 2419 4750 2650 4701 
Q 2881 4653 3097 4563 
z
M 1972 2591 
Q 1569 2591 1337 2300 
Q 1106 2009 1106 1497 
Q 1106 984 1337 693 
Q 1569 403 1972 403 
Q 2391 403 2603 679 
Q 2816 956 2816 1497 
Q 2816 2041 2603 2316 
Q 2391 2591 1972 2591 
z
" transform="scale(0.015625)"/>
       </defs>
       <use xlink:href="#DejaVuSansMono-36"/>
       <use xlink:href="#DejaVuSansMono-30" transform="translate(60.205078 0)"/>
       <use xlink:href="#DejaVuSansMono-30" transform="translate(120.410156 0)"/>
      </g>
     </g>
    </g>
    <g id="ytick_5">
     <g id="line2d_18">
      <g>
       <use xlink:href="#m89b94b124f" x="46.46" y="33.909889" style="stroke: #000000; stroke-width: 0.8"/>
      </g>
     </g>
     <g id="text_19">
      <!-- 800 -->
      <g transform="translate(25.01125 36.970514) scale(0.08 -0.08)">
       <defs>
        <path id="DejaVuSansMono-38" d="M 1925 2216 
Q 1503 2216 1273 1980 
Q 1044 1744 1044 1313 
Q 1044 881 1276 642 
Q 1509 403 1925 403 
Q 2350 403 2579 639 
Q 2809 875 2809 1313 
Q 2809 1741 2576 1978 
Q 2344 2216 1925 2216 
z
M 1375 2478 
Q 972 2581 745 2862 
Q 519 3144 519 3541 
Q 519 4097 897 4423 
Q 1275 4750 1925 4750 
Q 2578 4750 2956 4423 
Q 3334 4097 3334 3541 
Q 3334 3144 3107 2862 
Q 2881 2581 2478 2478 
Q 2947 2375 3195 2062 
Q 3444 1750 3444 1253 
Q 3444 622 3041 265 
Q 2638 -91 1925 -91 
Q 1213 -91 811 264 
Q 409 619 409 1247 
Q 409 1747 657 2061 
Q 906 2375 1375 2478 
z
M 1147 3481 
Q 1147 3106 1347 2909 
Q 1547 2713 1925 2713 
Q 2306 2713 2506 2909 
Q 2706 3106 2706 3481 
Q 2706 3863 2507 4063 
Q 2309 4263 1925 4263 
Q 1547 4263 1347 4061 
Q 1147 3859 1147 3481 
z
" transform="scale(0.015625)"/>
       </defs>
       <use xlink:href="#DejaVuSansMono-38"/>
       <use xlink:href="#DejaVuSansMono-30" transform="translate(60.205078 0)"/>
       <use xlink:href="#DejaVuSansMono-30" transform="translate(120.410156 0)"/>
      </g>
     </g>
    </g>
    <g id="text_20">
     <!-- count -->
     <g transform="translate(18.931563 119.639807) rotate(-90) scale(0.1 -0.1)">
      <use xlink:href="#DejaVuSansMono-63"/>
      <use xlink:href="#DejaVuSansMono-6f" transform="translate(60.205078 0)"/>
      <use xlink:href="#DejaVuSansMono-75" transform="translate(120.410156 0)"/>
      <use xlink:href="#DejaVuSansMono-6e" transform="translate(180.615234 0)"/>
      <use xlink:href="#DejaVuSansMono-74" transform="translate(240.820312 0)"/>
     </g>
    </g>
   </g>
   <g id="patch_16">
    <path d="M 46.46 182.298052 
L 46.46 26.88 
" style="fill: none; stroke: #000000; stroke-width: 0.8; stroke-linejoin: miter; stroke-linecap: square"/>
   </g>
   <g id="patch_17">
    <path d="M 853.2 182.298052 
L 853.2 26.88 
" style="fill: none; stroke: #000000; stroke-width: 0.8; stroke-linejoin: miter; stroke-linecap: square"/>
   </g>
   <g id="patch_18">
    <path d="M 46.46 182.298052 
L 853.2 182.298052 
" style="fill: none; stroke: #000000; stroke-width: 0.8; stroke-linejoin: miter; stroke-linecap: square"/>
   </g>
   <g id="patch_19">
    <path d="M 46.46 26.88 
L 853.2 26.88 
" style="fill: none; stroke: #000000; stroke-width: 0.8; stroke-linejoin: miter; stroke-linecap: square"/>
   </g>
   <g id="text_21">
    <!-- MITRE ATT&amp;CK Tactics present in public datasets -->
    <g transform="translate(280.057188 20.88) scale(0.12 -0.12)">
     <defs>
      <path id="DejaVuSansMono-54" d="M 147 4666 
L 3706 4666 
L 3706 4134 
L 2247 4134 
L 2247 0 
L 1613 0 
L 1613 4134 
L 147 4134 
L 147 4666 
z
" transform="scale(0.015625)"/>
      <path id="DejaVuSansMono-26" d="M 1709 2834 
L 3009 1088 
Q 3131 1241 3190 1475 
Q 3250 1709 3250 2034 
Q 3250 2134 3241 2353 
L 3238 2375 
L 3750 2375 
L 3750 2253 
Q 3750 1750 3634 1370 
Q 3519 991 3284 716 
L 3816 0 
L 3150 0 
L 2906 341 
Q 2647 122 2356 15 
Q 2066 -91 1734 -91 
Q 1059 -91 618 329 
Q 178 750 178 1388 
Q 178 1816 393 2181 
Q 609 2547 1044 2859 
Q 888 3084 813 3300 
Q 738 3516 738 3738 
Q 738 4206 1048 4478 
Q 1359 4750 1900 4750 
Q 2103 4750 2308 4712 
Q 2513 4675 2731 4603 
L 2731 4031 
Q 2547 4153 2351 4211 
Q 2156 4269 1941 4269 
Q 1638 4269 1463 4126 
Q 1288 3984 1288 3744 
Q 1288 3559 1378 3357 
Q 1469 3156 1709 2834 
z
M 1300 2509 
Q 1013 2281 870 2026 
Q 728 1772 728 1484 
Q 728 1013 1040 702 
Q 1353 391 1838 391 
Q 1969 391 2112 428 
Q 2256 466 2394 538 
Q 2478 584 2533 620 
Q 2588 656 2638 697 
L 1300 2509 
z
" transform="scale(0.015625)"/>
      <path id="DejaVuSansMono-4b" d="M 428 4666 
L 1063 4666 
L 1063 2591 
L 3034 4666 
L 3775 4666 
L 1959 2759 
L 3828 0 
L 3066 0 
L 1544 2338 
L 1063 1825 
L 1063 0 
L 428 0 
L 428 4666 
z
" transform="scale(0.015625)"/>
      <path id="DejaVuSansMono-62" d="M 2869 1747 
Q 2869 2416 2656 2756 
Q 2444 3097 2028 3097 
Q 1609 3097 1393 2755 
Q 1178 2413 1178 1747 
Q 1178 1084 1393 740 
Q 1609 397 2028 397 
Q 2444 397 2656 737 
Q 2869 1078 2869 1747 
z
M 1178 3053 
Q 1316 3309 1558 3446 
Q 1800 3584 2119 3584 
Q 2750 3584 3112 3098 
Q 3475 2613 3475 1759 
Q 3475 894 3111 401 
Q 2747 -91 2113 -91 
Q 1800 -91 1561 45 
Q 1322 181 1178 441 
L 1178 0 
L 603 0 
L 603 4863 
L 1178 4863 
L 1178 3053 
z
" transform="scale(0.015625)"/>
     </defs>
     <use xlink:href="#DejaVuSansMono-4d"/>
     <use xlink:href="#DejaVuSansMono-49" transform="translate(60.205078 0)"/>
     <use xlink:href="#DejaVuSansMono-54" transform="translate(120.410156 0)"/>
     <use xlink:href="#DejaVuSansMono-52" transform="translate(180.615234 0)"/>
     <use xlink:href="#DejaVuSansMono-45" transform="translate(240.820312 0)"/>
     <use xlink:href="#DejaVuSansMono-20" transform="translate(301.025391 0)"/>
     <use xlink:href="#DejaVuSansMono-41" transform="translate(361.230469 0)"/>
     <use xlink:href="#DejaVuSansMono-54" transform="translate(421.435547 0)"/>
     <use xlink:href="#DejaVuSansMono-54" transform="translate(481.640625 0)"/>
     <use xlink:href="#DejaVuSansMono-26" transform="translate(541.845703 0)"/>
     <use xlink:href="#DejaVuSansMono-43" transform="translate(602.050781 0)"/>
     <use xlink:href="#DejaVuSansMono-4b" transform="translate(662.255859 0)"/>
     <use xlink:href="#DejaVuSansMono-20" transform="translate(722.460938 0)"/>
     <use xlink:href="#DejaVuSansMono-54" transform="translate(782.666016 0)"/>
     <use xlink:href="#DejaVuSansMono-61" transform="translate(842.871094 0)"/>
     <use xlink:href="#DejaVuSansMono-63" transform="translate(903.076172 0)"/>
     <use xlink:href="#DejaVuSansMono-74" transform="translate(963.28125 0)"/>
     <use xlink:href="#DejaVuSansMono-69" transform="translate(1023.486328 0)"/>
     <use xlink:href="#DejaVuSansMono-63" transform="translate(1083.691406 0)"/>
     <use xlink:href="#DejaVuSansMono-73" transform="translate(1143.896484 0)"/>
     <use xlink:href="#DejaVuSansMono-20" transform="translate(1204.101562 0)"/>
     <use xlink:href="#DejaVuSansMono-70" transform="translate(1264.306641 0)"/>
     <use xlink:href="#DejaVuSansMono-72" transform="translate(1324.511719 0)"/>
     <use xlink:href="#DejaVuSansMono-65" transform="translate(1384.716797 0)"/>
     <use xlink:href="#DejaVuSansMono-73" transform="translate(1444.921875 0)"/>
     <use xlink:href="#DejaVuSansMono-65" transform="translate(1505.126953 0)"/>
     <use xlink:href="#DejaVuSansMono-6e" transform="translate(1565.332031 0)"/>
     <use xlink:href="#DejaVuSansMono-74" transform="translate(1625.537109 0)"/>
     <use xlink:href="#DejaVuSansMono-20" transform="translate(1685.742188 0)"/>
     <use xlink:href="#DejaVuSansMono-69" transform="translate(1745.947266 0)"/>
     <use xlink:href="#DejaVuSansMono-6e" transform="translate(1806.152344 0)"/>
     <use xlink:href="#DejaVuSansMono-20" transform="translate(1866.357422 0)"/>
     <use xlink:href="#DejaVuSansMono-70" transform="translate(1926.5625 0)"/>
     <use xlink:href="#DejaVuSansMono-75" transform="translate(1986.767578 0)"/>
     <use xlink:href="#DejaVuSansMono-62" transform="translate(2046.972656 0)"/>
     <use xlink:href="#DejaVuSansMono-6c" transform="translate(2107.177734 0)"/>
     <use xlink:href="#DejaVuSansMono-69" transform="translate(2167.382812 0)"/>
     <use xlink:href="#DejaVuSansMono-63" transform="translate(2227.587891 0)"/>
     <use xlink:href="#DejaVuSansMono-20" transform="translate(2287.792969 0)"/>
     <use xlink:href="#DejaVuSansMono-64" transform="translate(2347.998047 0)"/>
     <use xlink:href="#DejaVuSansMono-61" transform="translate(2408.203125 0)"/>
     <use xlink:href="#DejaVuSansMono-74" transform="translate(2468.408203 0)"/>
     <use xlink:href="#DejaVuSansMono-61" transform="translate(2528.613281 0)"/>
     <use xlink:href="#DejaVuSansMono-73" transform="translate(2588.818359 0)"/>
     <use xlink:href="#DejaVuSansMono-65" transform="translate(2649.023438 0)"/>
     <use xlink:href="#DejaVuSansMono-74" transform="translate(2709.228516 0)"/>
     <use xlink:href="#DejaVuSansMono-73" transform="translate(2769.433594 0)"/>
    </g>
   </g>
  </g>
 </g>
 <defs>
  <clipPath id="pd178c7417e">
   <rect x="46.46" y="26.88" width="806.74" height="155.418052"/>
  </clipPath>
 </defs>
</svg>
